<?xml version="1.0" encoding="utf-8"?>
<!-- Generator: Adobe Illustrator 25.2.0, SVG Export Plug-In . SVG Version: 6.00 Build 0)  -->
<svg version="1.1" xmlns="http://www.w3.org/2000/svg" xmlns:xlink="http://www.w3.org/1999/xlink" x="0px" y="0px"
	 viewBox="0 0 250 120" style="enable-background:new 0 0 250 120;" xml:space="preserve">
<style type="text/css">
	.st0{fill:url(#SVGID_1_);}
	.st1{fill:url(#SVGID_2_);}
	.st2{fill:url(#SVGID_3_);}
	.st3{fill:url(#SVGID_4_);}
	.st4{fill:url(#SVGID_5_);}
	.st5{fill:url(#SVGID_6_);}
	.st6{fill:url(#SVGID_7_);}
	.st7{fill:url(#SVGID_8_);}
	.st8{fill:url(#SVGID_9_);}
	.st9{fill:url(#SVGID_10_);}
	.st10{fill:url(#SVGID_11_);}
	.st11{fill:url(#SVGID_12_);}
	.st12{fill:url(#SVGID_13_);}
	.st13{fill:url(#SVGID_14_);}
	.st14{fill:url(#SVGID_15_);}
	.st15{fill:url(#SVGID_16_);}
	.st16{fill:url(#SVGID_17_);}
	.st17{fill:url(#SVGID_18_);}
	.st18{fill:url(#SVGID_19_);}
	.st19{fill:url(#SVGID_20_);}
	.st20{fill:url(#SVGID_21_);}
	.st21{fill:url(#SVGID_22_);}
	.st22{fill:url(#SVGID_23_);}
	.st23{fill:url(#SVGID_24_);}
	.st24{fill:url(#SVGID_25_);}
	.st25{fill:url(#SVGID_26_);}
	.st26{fill:#FFFFFF;}
	.st27{fill:none;stroke:#FFFFFF;stroke-miterlimit:10;}
	.st28{fill:none;stroke:#FFFFFF;stroke-width:0.25;stroke-miterlimit:10;}
	.st29{fill:url(#SVGID_27_);}
</style>
<g id="Layer_1">
</g>
<g id="Layer_2">
	<g>
		<g>
			<radialGradient id="SVGID_1_" cx="132.6694" cy="54.4705" r="7.572" gradientUnits="userSpaceOnUse">
				<stop  offset="0" style="stop-color:#003E56"/>
				<stop  offset="1" style="stop-color:#003E56"/>
			</radialGradient>
			<path class="st0" d="M127.25,62.69v-2.47c0.28,0.25,0.62,0.47,1.02,0.67c0.39,0.2,0.81,0.37,1.25,0.51
				c0.44,0.14,0.87,0.24,1.31,0.32c0.44,0.07,0.85,0.11,1.22,0.11c1.29,0,2.25-0.24,2.89-0.72c0.64-0.48,0.95-1.17,0.95-2.06
				c0-0.48-0.11-0.9-0.32-1.26c-0.21-0.36-0.5-0.68-0.88-0.98c-0.37-0.29-0.82-0.58-1.33-0.85c-0.51-0.27-1.06-0.55-1.65-0.85
				c-0.62-0.32-1.21-0.64-1.75-0.96c-0.54-0.32-1.01-0.68-1.41-1.07c-0.4-0.39-0.71-0.83-0.94-1.33c-0.23-0.49-0.34-1.07-0.34-1.74
				c0-0.81,0.18-1.52,0.54-2.13s0.83-1.1,1.41-1.49c0.58-0.39,1.24-0.68,1.99-0.87c0.74-0.19,1.5-0.29,2.27-0.29
				c1.76,0,3.05,0.21,3.85,0.64v2.36c-1.06-0.73-2.41-1.1-4.06-1.1c-0.46,0-0.91,0.05-1.37,0.14s-0.86,0.25-1.22,0.47
				c-0.36,0.22-0.65,0.49-0.87,0.84c-0.22,0.34-0.34,0.76-0.34,1.25c0,0.46,0.08,0.85,0.26,1.18c0.17,0.33,0.42,0.64,0.75,0.91
				c0.33,0.27,0.74,0.54,1.22,0.8c0.48,0.26,1.03,0.54,1.65,0.85c0.64,0.32,1.25,0.65,1.82,1s1.08,0.74,1.51,1.16
				c0.43,0.42,0.78,0.89,1.03,1.41c0.25,0.52,0.38,1.11,0.38,1.77c0,0.88-0.17,1.63-0.52,2.24c-0.34,0.61-0.81,1.11-1.4,1.49
				c-0.59,0.38-1.26,0.66-2.03,0.83c-0.76,0.17-1.57,0.25-2.42,0.25c-0.28,0-0.63-0.02-1.05-0.07c-0.42-0.05-0.84-0.11-1.27-0.2
				s-0.84-0.2-1.23-0.32C127.79,62.99,127.49,62.84,127.25,62.69z"/>
			<radialGradient id="SVGID_2_" cx="146.0205" cy="54.4707" r="7.693" gradientUnits="userSpaceOnUse">
				<stop  offset="0" style="stop-color:#003E56"/>
				<stop  offset="1" style="stop-color:#003E56"/>
			</radialGradient>
			<path class="st1" d="M152.22,47.43h-5.16v15.98h-2.09V47.43h-5.15v-1.9h12.4V47.43z"/>
			<radialGradient id="SVGID_3_" cx="161.436" cy="54.4707" r="7.7767" gradientUnits="userSpaceOnUse">
				<stop  offset="0" style="stop-color:#003E56"/>
				<stop  offset="1" style="stop-color:#003E56"/>
			</radialGradient>
			<path class="st2" d="M167.84,63.41h-2.49l-2.99-5.01c-0.27-0.47-0.54-0.86-0.8-1.19c-0.26-0.33-0.52-0.6-0.79-0.8
				c-0.27-0.21-0.56-0.36-0.87-0.45c-0.31-0.1-0.66-0.14-1.05-0.14h-1.72v7.6h-2.09V45.53h5.34c0.78,0,1.5,0.1,2.16,0.29
				c0.66,0.2,1.23,0.49,1.72,0.89s0.87,0.9,1.14,1.49s0.41,1.29,0.41,2.09c0,0.62-0.09,1.19-0.28,1.71
				c-0.19,0.52-0.45,0.98-0.8,1.39c-0.34,0.41-0.76,0.75-1.25,1.04s-1.03,0.51-1.64,0.67v0.05c0.3,0.13,0.56,0.29,0.78,0.46
				c0.22,0.17,0.43,0.37,0.63,0.6c0.2,0.23,0.4,0.5,0.59,0.79s0.41,0.64,0.65,1.03L167.84,63.41z M157.12,47.43v6.48h2.84
				c0.52,0,1.01-0.08,1.45-0.24c0.45-0.16,0.83-0.38,1.15-0.68s0.58-0.66,0.76-1.08c0.18-0.43,0.27-0.91,0.27-1.44
				c0-0.96-0.31-1.7-0.93-2.24c-0.62-0.54-1.51-0.8-2.69-0.8H157.12z"/>
			<radialGradient id="SVGID_4_" cx="176.1831" cy="54.4707" r="8.4604" gradientUnits="userSpaceOnUse">
				<stop  offset="0" style="stop-color:#003E56"/>
				<stop  offset="1" style="stop-color:#003E56"/>
			</radialGradient>
			<path class="st3" d="M184.14,63.41h-2.32l-1.89-5.01h-7.58l-1.78,5.01h-2.33l6.86-17.88h2.17L184.14,63.41z M179.24,56.52
				l-2.8-7.62c-0.09-0.25-0.18-0.65-0.27-1.2h-0.05c-0.08,0.51-0.18,0.91-0.29,1.2l-2.78,7.62H179.24z"/>
			<radialGradient id="SVGID_5_" cx="189.3037" cy="54.4707" r="7.693" gradientUnits="userSpaceOnUse">
				<stop  offset="0" style="stop-color:#003E56"/>
				<stop  offset="1" style="stop-color:#003E56"/>
			</radialGradient>
			<path class="st4" d="M195.51,47.43h-5.16v15.98h-2.09V47.43h-5.15v-1.9h12.4V47.43z"/>
			<radialGradient id="SVGID_6_" cx="203.0488" cy="54.4707" r="7.1533" gradientUnits="userSpaceOnUse">
				<stop  offset="0" style="stop-color:#003E56"/>
				<stop  offset="1" style="stop-color:#003E56"/>
			</radialGradient>
			<path class="st5" d="M207.79,63.41h-9.47V45.53h9.08v1.9h-6.98v5.95h6.46v1.88h-6.46v6.26h7.38V63.41z"/>
			<radialGradient id="SVGID_7_" cx="217.3228" cy="54.4705" r="8.3114" gradientUnits="userSpaceOnUse">
				<stop  offset="0" style="stop-color:#003E56"/>
				<stop  offset="1" style="stop-color:#003E56"/>
			</radialGradient>
			<path class="st6" d="M224.59,62.19c-1.8,1.01-3.79,1.52-5.98,1.52c-2.55,0-4.61-0.82-6.19-2.47c-1.58-1.65-2.36-3.82-2.36-6.53
				c0-2.77,0.88-5.04,2.62-6.81c1.75-1.77,3.97-2.66,6.65-2.66c1.94,0,3.58,0.32,4.9,0.95v2.32c-1.45-0.91-3.16-1.37-5.14-1.37
				c-2,0-3.64,0.69-4.92,2.07c-1.28,1.38-1.92,3.17-1.92,5.36c0,2.26,0.59,4.04,1.78,5.33c1.19,1.29,2.8,1.94,4.84,1.94
				c1.4,0,2.61-0.28,3.63-0.84v-5.01h-3.91v-1.89h6.01V62.19z"/>
			<radialGradient id="SVGID_8_" cx="229.7896" cy="54.4707" r="6.3637" gradientUnits="userSpaceOnUse">
				<stop  offset="0" style="stop-color:#003E56"/>
				<stop  offset="1" style="stop-color:#003E56"/>
			</radialGradient>
			<path class="st7" d="M230.84,63.41h-2.09V45.53h2.09V63.41z"/>
			<radialGradient id="SVGID_9_" cx="241.0337" cy="54.4705" r="8.0565" gradientUnits="userSpaceOnUse">
				<stop  offset="0" style="stop-color:#003E56"/>
				<stop  offset="1" style="stop-color:#003E56"/>
			</radialGradient>
			<path class="st8" d="M247.7,62.66c-1.32,0.7-2.97,1.05-4.94,1.05c-2.54,0-4.58-0.82-6.11-2.46c-1.53-1.64-2.29-3.79-2.29-6.44
				c0-2.86,0.86-5.17,2.58-6.93c1.72-1.76,3.9-2.64,6.54-2.64c1.7,0,3.1,0.25,4.21,0.74v2.23c-1.28-0.71-2.69-1.07-4.24-1.07
				c-2.05,0-3.72,0.69-4.99,2.06c-1.28,1.37-1.91,3.2-1.91,5.5c0,2.18,0.6,3.91,1.79,5.2c1.19,1.29,2.76,1.94,4.69,1.94
				c1.79,0,3.35-0.4,4.66-1.2V62.66z"/>
		</g>
		<g>
			<radialGradient id="SVGID_10_" cx="134.4346" cy="76.0903" r="4.8769" gradientUnits="userSpaceOnUse">
				<stop  offset="0" style="stop-color:#003E56"/>
				<stop  offset="1" style="stop-color:#003E56"/>
			</radialGradient>
			<path class="st9" d="M139.36,80.92h-1.12v-6.48c0-0.51,0.03-1.14,0.09-1.88h-0.03c-0.11,0.44-0.2,0.75-0.29,0.94l-3.3,7.42h-0.55
				l-3.29-7.37c-0.09-0.22-0.19-0.55-0.29-0.99h-0.03c0.04,0.39,0.05,1.02,0.05,1.89v6.47h-1.09v-9.66h1.5l2.96,6.74
				c0.23,0.52,0.38,0.9,0.44,1.16h0.04c0.19-0.53,0.35-0.92,0.46-1.19l3.02-6.71h1.41V80.92z"/>
			<radialGradient id="SVGID_11_" cx="145.0776" cy="76.0903" r="4.5712" gradientUnits="userSpaceOnUse">
				<stop  offset="0" style="stop-color:#003E56"/>
				<stop  offset="1" style="stop-color:#003E56"/>
			</radialGradient>
			<path class="st10" d="M149.38,80.92h-1.25l-1.02-2.71H143l-0.96,2.71h-1.26l3.7-9.66h1.17L149.38,80.92z M146.73,77.2l-1.52-4.12
				c-0.05-0.13-0.1-0.35-0.15-0.65h-0.03c-0.04,0.27-0.1,0.49-0.16,0.65l-1.5,4.12H146.73z"/>
			<radialGradient id="SVGID_12_" cx="154.2578" cy="76.0903" r="4.2018" gradientUnits="userSpaceOnUse">
				<stop  offset="0" style="stop-color:#003E56"/>
				<stop  offset="1" style="stop-color:#003E56"/>
			</radialGradient>
			<path class="st11" d="M157.72,80.92h-1.35l-1.62-2.71c-0.15-0.25-0.29-0.47-0.43-0.64c-0.14-0.18-0.28-0.32-0.43-0.43
				s-0.3-0.19-0.47-0.25c-0.17-0.05-0.36-0.08-0.57-0.08h-0.93v4.11h-1.13v-9.66h2.88c0.42,0,0.81,0.05,1.17,0.16
				c0.36,0.11,0.67,0.27,0.93,0.48s0.47,0.48,0.62,0.8c0.15,0.32,0.22,0.7,0.22,1.13c0,0.34-0.05,0.65-0.15,0.93
				c-0.1,0.28-0.25,0.53-0.43,0.75c-0.19,0.22-0.41,0.41-0.67,0.56c-0.26,0.16-0.56,0.28-0.89,0.36v0.03
				c0.16,0.07,0.3,0.15,0.42,0.25c0.12,0.09,0.23,0.2,0.34,0.33c0.11,0.13,0.21,0.27,0.32,0.43s0.22,0.34,0.35,0.56L157.72,80.92z
				 M151.93,72.28v3.5h1.54c0.28,0,0.54-0.04,0.79-0.13s0.45-0.21,0.62-0.37c0.17-0.16,0.31-0.35,0.41-0.59
				c0.1-0.23,0.15-0.49,0.15-0.78c0-0.52-0.17-0.92-0.5-1.21c-0.33-0.29-0.82-0.43-1.45-0.43H151.93z"/>
			<radialGradient id="SVGID_13_" cx="162.4092" cy="76.0903" r="4.1607" gradientUnits="userSpaceOnUse">
				<stop  offset="0" style="stop-color:#003E56"/>
				<stop  offset="1" style="stop-color:#003E56"/>
			</radialGradient>
			<path class="st12" d="M165.77,80.92h-1.58l-3.73-4.42c-0.14-0.17-0.22-0.28-0.26-0.34h-0.03v4.76h-1.13v-9.66h1.13v4.54h0.03
				c0.06-0.1,0.15-0.21,0.26-0.33l3.61-4.21h1.41l-4.14,4.63L165.77,80.92z"/>
			<radialGradient id="SVGID_14_" cx="169.6094" cy="76.0903" r="3.865" gradientUnits="userSpaceOnUse">
				<stop  offset="0" style="stop-color:#003E56"/>
				<stop  offset="1" style="stop-color:#003E56"/>
			</radialGradient>
			<path class="st13" d="M172.17,80.92h-5.12v-9.66h4.9v1.02h-3.77v3.21h3.49v1.02h-3.49v3.38h3.99V80.92z"/>
			<radialGradient id="SVGID_15_" cx="176.4165" cy="76.0903" r="4.1566" gradientUnits="userSpaceOnUse">
				<stop  offset="0" style="stop-color:#003E56"/>
				<stop  offset="1" style="stop-color:#003E56"/>
			</radialGradient>
			<path class="st14" d="M179.77,72.28h-2.79v8.64h-1.13v-8.64h-2.78v-1.02h6.7V72.28z"/>
			<radialGradient id="SVGID_16_" cx="188.5234" cy="76.0903" r="4.2018" gradientUnits="userSpaceOnUse">
				<stop  offset="0" style="stop-color:#003E56"/>
				<stop  offset="1" style="stop-color:#003E56"/>
			</radialGradient>
			<path class="st15" d="M191.99,80.92h-1.35l-1.62-2.71c-0.15-0.25-0.29-0.47-0.43-0.64c-0.14-0.18-0.28-0.32-0.43-0.43
				s-0.3-0.19-0.47-0.25c-0.17-0.05-0.36-0.08-0.57-0.08h-0.93v4.11h-1.13v-9.66h2.88c0.42,0,0.81,0.05,1.17,0.16
				c0.36,0.11,0.67,0.27,0.93,0.48s0.47,0.48,0.62,0.8c0.15,0.32,0.22,0.7,0.22,1.13c0,0.34-0.05,0.65-0.15,0.93
				c-0.1,0.28-0.25,0.53-0.43,0.75c-0.19,0.22-0.41,0.41-0.67,0.56c-0.26,0.16-0.56,0.28-0.89,0.36v0.03
				c0.16,0.07,0.3,0.15,0.42,0.25c0.12,0.09,0.23,0.2,0.34,0.33c0.11,0.13,0.21,0.27,0.32,0.43s0.22,0.34,0.35,0.56L191.99,80.92z
				 M186.19,72.28v3.5h1.54c0.28,0,0.54-0.04,0.79-0.13s0.45-0.21,0.62-0.37c0.17-0.16,0.31-0.35,0.41-0.59
				c0.1-0.23,0.15-0.49,0.15-0.78c0-0.52-0.17-0.92-0.5-1.21c-0.33-0.29-0.82-0.43-1.45-0.43H186.19z"/>
			<radialGradient id="SVGID_17_" cx="195.873" cy="76.0903" r="3.865" gradientUnits="userSpaceOnUse">
				<stop  offset="0" style="stop-color:#003E56"/>
				<stop  offset="1" style="stop-color:#003E56"/>
			</radialGradient>
			<path class="st16" d="M198.43,80.92h-5.12v-9.66h4.9v1.02h-3.77v3.21h3.49v1.02h-3.49v3.38h3.99V80.92z"/>
			<radialGradient id="SVGID_18_" cx="202.7676" cy="76.0903" r="4.0916" gradientUnits="userSpaceOnUse">
				<stop  offset="0" style="stop-color:#003E56"/>
				<stop  offset="1" style="stop-color:#003E56"/>
			</radialGradient>
			<path class="st17" d="M199.84,80.53V79.2c0.15,0.13,0.33,0.26,0.55,0.36c0.21,0.11,0.44,0.2,0.67,0.27
				c0.24,0.07,0.47,0.13,0.71,0.17s0.46,0.06,0.66,0.06c0.7,0,1.22-0.13,1.56-0.39c0.34-0.26,0.52-0.63,0.52-1.11
				c0-0.26-0.06-0.49-0.17-0.68c-0.12-0.19-0.27-0.37-0.48-0.53c-0.2-0.16-0.44-0.31-0.72-0.46c-0.28-0.15-0.57-0.3-0.89-0.46
				c-0.34-0.17-0.65-0.34-0.94-0.52s-0.54-0.37-0.76-0.58s-0.38-0.45-0.51-0.72c-0.12-0.27-0.19-0.58-0.19-0.94
				c0-0.44,0.1-0.82,0.29-1.15c0.19-0.33,0.45-0.59,0.76-0.8c0.31-0.21,0.67-0.37,1.08-0.47c0.4-0.1,0.81-0.16,1.23-0.16
				c0.95,0,1.65,0.12,2.08,0.34v1.27c-0.57-0.4-1.3-0.59-2.2-0.59c-0.25,0-0.49,0.03-0.74,0.08s-0.47,0.14-0.66,0.25
				c-0.19,0.12-0.35,0.27-0.47,0.45c-0.12,0.18-0.18,0.41-0.18,0.67c0,0.25,0.05,0.46,0.14,0.64c0.09,0.18,0.23,0.34,0.41,0.49
				c0.18,0.15,0.4,0.29,0.66,0.43c0.26,0.14,0.56,0.29,0.89,0.46c0.35,0.17,0.67,0.35,0.98,0.54c0.31,0.19,0.58,0.4,0.81,0.63
				c0.23,0.23,0.42,0.48,0.56,0.76s0.21,0.6,0.21,0.96c0,0.48-0.09,0.88-0.28,1.21s-0.44,0.6-0.75,0.8
				c-0.32,0.21-0.68,0.36-1.09,0.45s-0.85,0.14-1.31,0.14c-0.15,0-0.34-0.01-0.57-0.04c-0.22-0.03-0.45-0.06-0.69-0.11
				c-0.23-0.05-0.46-0.11-0.66-0.17C200.13,80.69,199.97,80.61,199.84,80.53z"/>
			<radialGradient id="SVGID_19_" cx="210.1797" cy="76.0903" r="3.865" gradientUnits="userSpaceOnUse">
				<stop  offset="0" style="stop-color:#003E56"/>
				<stop  offset="1" style="stop-color:#003E56"/>
			</radialGradient>
			<path class="st18" d="M212.74,80.92h-5.12v-9.66h4.9v1.02h-3.77v3.21h3.49v1.02h-3.49v3.38h3.99V80.92z"/>
			<radialGradient id="SVGID_20_" cx="217.8452" cy="76.0903" r="4.5712" gradientUnits="userSpaceOnUse">
				<stop  offset="0" style="stop-color:#003E56"/>
				<stop  offset="1" style="stop-color:#003E56"/>
			</radialGradient>
			<path class="st19" d="M222.14,80.92h-1.25l-1.02-2.71h-4.1l-0.96,2.71h-1.26l3.7-9.66h1.17L222.14,80.92z M219.5,77.2l-1.52-4.12
				c-0.05-0.13-0.1-0.35-0.15-0.65h-0.03c-0.04,0.27-0.1,0.49-0.16,0.65l-1.5,4.12H219.5z"/>
			<radialGradient id="SVGID_21_" cx="227.0264" cy="76.0903" r="4.2018" gradientUnits="userSpaceOnUse">
				<stop  offset="0" style="stop-color:#003E56"/>
				<stop  offset="1" style="stop-color:#003E56"/>
			</radialGradient>
			<path class="st20" d="M230.49,80.92h-1.35l-1.62-2.71c-0.15-0.25-0.29-0.47-0.43-0.64c-0.14-0.18-0.28-0.32-0.43-0.43
				s-0.3-0.19-0.47-0.25c-0.17-0.05-0.36-0.08-0.57-0.08h-0.93v4.11h-1.13v-9.66h2.88c0.42,0,0.81,0.05,1.17,0.16
				c0.36,0.11,0.67,0.27,0.93,0.48s0.47,0.48,0.62,0.8c0.15,0.32,0.22,0.7,0.22,1.13c0,0.34-0.05,0.65-0.15,0.93
				c-0.1,0.28-0.25,0.53-0.43,0.75c-0.19,0.22-0.41,0.41-0.67,0.56c-0.26,0.16-0.56,0.28-0.89,0.36v0.03
				c0.16,0.07,0.3,0.15,0.42,0.25c0.12,0.09,0.23,0.2,0.34,0.33c0.11,0.13,0.21,0.27,0.32,0.43s0.22,0.34,0.35,0.56L230.49,80.92z
				 M224.7,72.28v3.5h1.54c0.28,0,0.54-0.04,0.79-0.13s0.45-0.21,0.62-0.37c0.17-0.16,0.31-0.35,0.41-0.59
				c0.1-0.23,0.15-0.49,0.15-0.78c0-0.52-0.17-0.92-0.5-1.21c-0.33-0.29-0.82-0.43-1.45-0.43H224.7z"/>
			<radialGradient id="SVGID_22_" cx="234.5903" cy="76.0903" r="4.3535" gradientUnits="userSpaceOnUse">
				<stop  offset="0" style="stop-color:#003E56"/>
				<stop  offset="1" style="stop-color:#003E56"/>
			</radialGradient>
			<path class="st21" d="M238.19,80.52c-0.71,0.38-1.6,0.57-2.67,0.57c-1.37,0-2.47-0.44-3.3-1.33c-0.83-0.88-1.24-2.05-1.24-3.48
				c0-1.54,0.46-2.79,1.39-3.75s2.11-1.43,3.54-1.43c0.92,0,1.68,0.13,2.28,0.4v1.21c-0.69-0.39-1.46-0.58-2.29-0.58
				c-1.11,0-2.01,0.37-2.7,1.11s-1.03,1.73-1.03,2.97c0,1.18,0.32,2.11,0.97,2.81c0.64,0.7,1.49,1.05,2.54,1.05
				c0.97,0,1.81-0.22,2.52-0.65V80.52z"/>
			<radialGradient id="SVGID_23_" cx="243.7925" cy="76.0903" r="4.2723" gradientUnits="userSpaceOnUse">
				<stop  offset="0" style="stop-color:#003E56"/>
				<stop  offset="1" style="stop-color:#003E56"/>
			</radialGradient>
			<path class="st22" d="M247.42,80.92h-1.13v-4.41h-5v4.41h-1.13v-9.66h1.13v4.24h5v-4.24h1.13V80.92z"/>
		</g>
	</g>
	<linearGradient id="SVGID_24_" gradientUnits="userSpaceOnUse" x1="48.196" y1="75.0831" x2="0.9723" y2="47.8185">
		<stop  offset="5.102040e-03" style="stop-color:#008CC0"/>
		<stop  offset="0.3469" style="stop-color:#00527C"/>
		<stop  offset="1" style="stop-color:#003E56"/>
	</linearGradient>
	<path class="st23" d="M45.78,66.15c-0.54-1.27-1.3-2.49-2.34-3.61c-0.85-0.94-1.89-1.84-3.16-2.67c-1.16-0.76-2.51-1.5-4.09-2.18
		c-0.15-0.05-0.26-0.11-0.41-0.16c-0.02-0.02-0.05-0.02-0.07-0.03c-2.39-1.01-5.26-1.92-8.71-2.73c-9.08-2.1-11.46-3.68-11.46-7.58
		c0-4,2.96-6.04,7.89-6.04c7.24,0,9.16,3.76,9.75,7.21h12.24c-0.81-8.2-6.75-16.23-21.66-16.23c-13.3,0-20.62,6.64-20.62,16.44
		c0,7.58,3.78,13.15,19.06,16.73c0.73,0.16,1.42,0.34,2.07,0.5c0.03,0,0.05,0.02,0.08,0.02h0.02c1.73,0.46,3.14,0.9,4.36,1.37
		c0.15,0.05,0.29,0.1,0.42,0.16c0.03,0,0.07,0.02,0.1,0.03c0.2,0.08,0.39,0.16,0.59,0.24c0.2,0.08,0.41,0.16,0.59,0.26
		c1.06,0.54,1.89,1.11,2.49,1.76c0.13,0.11,0.23,0.23,0.33,0.34c0.07-0.05,0.13-0.1,0.2-0.15c1.19,1.19,1.64,2.62,1.64,4.48
		c0,4.1-2.77,6.67-9.24,6.67c-1.86,0-3.52-0.2-4.96-0.63c0.02-0.02,0.05-0.03,0.07-0.05c-0.49-0.11-0.94-0.24-1.37-0.41
		c-2.59-0.93-4.43-2.64-5.49-5.21c-0.26-0.63-0.49-1.3-0.65-2.03H1.2c0.55,4.05,2.05,7.63,4.57,10.43c0.02,0.02,0.03,0.05,0.05,0.07
		c1.86,2.05,4.25,3.71,7.19,4.85c0.28,0.11,0.57,0.24,0.86,0.33c2.95,1.03,6.43,1.58,10.45,1.58c14.84,0,22.61-7.03,22.61-17.29
		C46.93,70.29,46.62,68.14,45.78,66.15z"/>
	<radialGradient id="SVGID_25_" cx="83.7501" cy="61.0244" r="28.7511" gradientUnits="userSpaceOnUse">
		<stop  offset="5.102040e-03" style="stop-color:#008CC0"/>
		<stop  offset="0.0318" style="stop-color:#0088BB"/>
		<stop  offset="0.6904" style="stop-color:#07516D"/>
		<stop  offset="1" style="stop-color:#003E56"/>
	</radialGradient>
	<path class="st24" d="M95.73,32.93c-0.16,0.5-0.33,1.01-0.5,1.53c0,0.02-0.02,0.03-0.02,0.05c-0.26,0.8-0.52,1.63-0.8,2.47
		c-0.08,0.23-0.15,0.46-0.23,0.68c0.24-0.07,0.47-0.15,0.72-0.21c-0.72,2.23-1.46,4.54-2.2,6.87c-3.81,12.06-7.6,24.69-8.64,30.29
		h-0.1c-0.08-0.39-0.16-0.81-0.26-1.25c-0.08,0.37-0.15,0.72-0.21,1.04h-0.08c-0.98-4.82-3.01-12.91-5.39-21.71
		c-0.73-2.7-1.5-5.45-2.26-8.2c-0.21-0.73-0.41-1.46-0.62-2.18c-0.28-0.99-0.57-1.99-0.85-2.98c-0.02-0.07-0.03-0.13-0.05-0.2
		c-0.62-2.12-1.22-4.2-1.82-6.2H54.36v22.61c0.18-0.11,0.37-0.23,0.55-0.34v33.92h10.51V68.98c0-3.27-0.03-6.77-0.08-10.22
		c-0.05-3.19-0.13-6.33-0.23-9.21c-0.03-1.06-0.07-2.08-0.11-3.06c-0.07-1.4-0.13-2.7-0.21-3.89v-0.16
		c-0.02-0.44-0.05-0.85-0.08-1.24h0.37c0.07,0.34,0.15,0.67,0.23,1.03c0.02,0.05,0.02,0.11,0.03,0.16h0.02
		c0.24,1.11,0.52,2.29,0.83,3.56c0.2,0.86,0.42,1.77,0.65,2.7c0.15-0.07,0.29-0.15,0.46-0.23c0.63,2.62,1.35,5.47,2.13,8.48
		c2.67,10.38,5.94,22.48,8.54,32.21h9.83c5.39-17.58,11-36.3,13.64-47.75h0.39c-0.02,0.37-0.03,0.75-0.05,1.16
		c0.08-0.33,0.16-0.63,0.23-0.94h0.37c-0.24,6.35-0.39,17.09-0.39,26.68v20.87h11.15V32.93H95.73z"/>
	<g>
		<g>
			<linearGradient id="SVGID_26_" gradientUnits="userSpaceOnUse" x1="6.0153" y1="73.8094" x2="47.4869" y2="73.8094">
				<stop  offset="5.102040e-03" style="stop-color:#27B4E9"/>
				<stop  offset="0.5663" style="stop-color:#008CC0"/>
				<stop  offset="1" style="stop-color:#00649F"/>
			</linearGradient>
			<path class="st25" d="M46.18,66.02c-0.59-1.29-1.42-2.49-2.52-3.63c-0.9-0.91-1.97-1.77-3.29-2.59c-1.2-0.75-2.59-1.45-4.18-2.12
				c-0.15-0.05-0.26-0.11-0.41-0.16c-0.02-0.02-0.05-0.02-0.07-0.03c-3.81,2.49-7.63,5.26-11.44,8.3c-0.03,0.02-0.05,0.05-0.08,0.07
				c0.03,0,0.05,0.02,0.08,0.02c1.74,0.44,3.21,0.86,4.46,1.3c0.15,0.05,0.29,0.1,0.42,0.16c0.03,0,0.07,0.02,0.1,0.03
				c0.2,0.08,0.39,0.16,0.59,0.24c0.2,0.08,0.41,0.16,0.59,0.26c1.16,0.52,2.05,1.06,2.73,1.71c0.1,0.07,0.2,0.15,0.28,0.24
				c1.19,1.19,1.64,2.62,1.64,4.48c0,4.1-2.77,6.67-9.24,6.67c-1.86,0-3.52-0.2-4.96-0.63c-0.46-0.13-0.9-0.28-1.3-0.46
				c-2.46-1.03-4.18-2.85-5.13-5.55c-0.11,0.11-0.24,0.23-0.36,0.34c-2.73,2.59-5.42,5.34-8.07,8.25c1.77,2.12,4.1,3.84,7,5.06
				c0.28,0.11,0.57,0.24,0.86,0.33c3.08,1.19,6.74,1.81,11,1.81c14.86,0,22.61-7.05,22.61-17.3C47.49,70.37,47.15,68.1,46.18,66.02z
				"/>
		</g>
	</g>
	<g>
		<path class="st26" d="M113.71,33.14c-10.79,1.32-21.32,3.22-31.52,6.24c-5.1,1.47-10.1,3.26-15.03,5.17
			c-4.91,1.99-9.73,4.17-14.46,6.56c-9.42,4.84-18.47,10.42-27.07,16.72c-4.31,3.14-8.5,6.45-12.61,9.91
			C8.9,81.18,4.93,84.8,1.05,88.61c2.84-4.65,6.31-8.89,9.92-12.99c3.65-4.07,7.57-7.9,11.72-11.49
			c8.29-7.17,17.49-13.35,27.29-18.38c4.93-2.46,9.99-4.66,15.18-6.53c2.62-0.85,5.21-1.8,7.88-2.47c1.33-0.35,2.64-0.76,3.99-1.06
			l4.03-0.89C91.83,32.61,102.91,31.98,113.71,33.14z"/>
	</g>
	<path class="st27" d="M33.44,69.83"/>
	<path class="st28" d="M33.44,69.83"/>
	<radialGradient id="SVGID_27_" cx="57.3828" cy="60.8645" r="44.4029" gradientUnits="userSpaceOnUse">
		<stop  offset="0" style="stop-color:#FFFFFF"/>
		<stop  offset="0.4516" style="stop-color:#D9D9D9"/>
		<stop  offset="0.4773" style="stop-color:#CECECE"/>
		<stop  offset="0.5703" style="stop-color:#ACACAC"/>
		<stop  offset="0.6587" style="stop-color:#939393"/>
		<stop  offset="0.7397" style="stop-color:#858585"/>
		<stop  offset="0.8065" style="stop-color:#808080"/>
		<stop  offset="0.8533" style="stop-color:#848484"/>
		<stop  offset="0.9033" style="stop-color:#919191"/>
		<stop  offset="0.9544" style="stop-color:#A6A6A6"/>
		<stop  offset="1" style="stop-color:#BFBFBF"/>
	</radialGradient>
	<path class="st29" d="M113.71,33.14c-0.2,0.03-0.37,0.07-0.57,0.1c-4.83,0.78-9.54,1.82-14.11,3.04c-1.38,0.37-2.77,0.77-4.13,1.17
		c-0.24,0.07-0.47,0.15-0.72,0.21c-6.27,1.9-12.27,4.15-17.97,6.62c-0.15,0.07-0.31,0.13-0.46,0.2c-2.9,1.27-5.73,2.57-8.46,3.94
		c-0.16,0.08-0.31,0.16-0.46,0.23c-0.39,0.21-0.78,0.41-1.17,0.6c-0.18,0.1-0.37,0.2-0.55,0.29c-3.56,1.82-6.95,3.73-10.21,5.65
		c-0.18,0.11-0.37,0.23-0.55,0.34c-3.81,2.26-7.37,4.56-10.69,6.85c-0.08,0.05-0.15,0.1-0.23,0.15c-3.4,2.31-6.54,4.62-9.41,6.84
		c-0.2,0.15-0.39,0.31-0.59,0.46c-0.07,0.05-0.13,0.1-0.2,0.15c-4.93,3.82-9.05,7.37-12.3,10.32c-0.02,0.02-0.05,0.03-0.07,0.05
		c-4.09,3.73-6.77,6.49-7.86,7.65c-0.37,0.41,1.18-0.02,1.18-0.02L1.05,88.61c0,0,0.05-0.05,0.13-0.16c1.53-1.84,3.08-3.6,4.64-5.31
		c0.07-0.07,0.13-0.15,0.2-0.21c2.65-2.91,5.34-5.66,8.07-8.25c0.11-0.11,0.24-0.23,0.36-0.34c0.31-0.28,0.62-0.57,0.94-0.86
		c0.68-0.62,1.38-1.25,2.1-1.89c0.18-0.16,0.37-0.34,0.57-0.5c2.03-1.84,4.09-3.58,6.14-5.22c0.03-0.02,0.05-0.05,0.08-0.07
		c3.81-3.04,7.63-5.81,11.44-8.3c2.93-1.92,5.84-3.69,8.74-5.34c0.23-0.13,0.46-0.24,0.67-0.37c3.11-1.73,6.2-3.3,9.23-4.74
		c0.18-0.08,0.37-0.18,0.55-0.26c3.35-1.58,6.66-2.95,9.88-4.18c0.18-0.07,0.37-0.15,0.55-0.21h0.02c0.16-0.07,0.31-0.13,0.47-0.18
		c2.9-1.09,5.73-2.03,8.46-2.88c0.16-0.05,0.31-0.1,0.47-0.15c7.65-2.33,14.6-3.76,20.44-4.67c0.23-0.03,0.44-0.07,0.67-0.1
		c1.58-0.24,3.08-0.42,4.49-0.59c0.15-0.02,0.29-0.03,0.44-0.05c4-0.42,7.21-0.59,9.42-0.63c1.35-0.03,2.33-0.03,2.91-0.02
		C113.52,33.13,113.71,33.14,113.71,33.14z"/>
</g>
</svg>
